<svg width="91" height="39" viewBox="0 0 91 39" fill="none" xmlns="http://www.w3.org/2000/svg">
<path d="M3.72 25.04H13.48V28H0.0800003V0.119999H3.72V25.04ZM26.9056 28.36C24.8523 28.36 22.9856 27.8933 21.3056 26.96C19.6523 26.0267 18.3456 24.7067 17.3856 23C16.4523 21.2667 15.9856 19.2667 15.9856 17C15.9856 14.76 16.4656 12.7867 17.4256 11.08C18.4123 9.34667 19.7456 8.02667 21.4256 7.12C23.1056 6.18667 24.9856 5.72 27.0656 5.72C29.1456 5.72 31.0256 6.18667 32.7056 7.12C34.3856 8.02667 35.7056 9.33333 36.6656 11.04C37.6523 12.7467 38.1456 14.7333 38.1456 17C38.1456 19.2667 37.639 21.2667 36.6256 23C35.639 24.7067 34.2923 26.0267 32.5856 26.96C30.879 27.8933 28.9856 28.36 26.9056 28.36ZM26.9056 25.16C28.2123 25.16 29.439 24.8533 30.5856 24.24C31.7323 23.6267 32.6523 22.7067 33.3456 21.48C34.0656 20.2533 34.4256 18.76 34.4256 17C34.4256 15.24 34.079 13.7467 33.3856 12.52C32.6923 11.2933 31.7856 10.3867 30.6656 9.8C29.5456 9.18667 28.3323 8.88 27.0256 8.88C25.6923 8.88 24.4656 9.18667 23.3456 9.8C22.2523 10.3867 21.3723 11.2933 20.7056 12.52C20.039 13.7467 19.7056 15.24 19.7056 17C19.7056 18.7867 20.0256 20.2933 20.6656 21.52C21.3323 22.7467 22.2123 23.6667 23.3056 24.28C24.399 24.8667 25.599 25.16 26.9056 25.16ZM51.9716 5.72C53.8649 5.72 55.5182 6.13333 56.9316 6.96C58.3716 7.78667 59.4382 8.82667 60.1316 10.08V6.08H63.8116V28.48C63.8116 30.48 63.3849 32.2533 62.5316 33.8C61.6782 35.3733 60.4516 36.6 58.8516 37.48C57.2782 38.36 55.4382 38.8 53.3316 38.8C50.4516 38.8 48.0516 38.12 46.1316 36.76C44.2116 35.4 43.0782 33.5467 42.7316 31.2H46.3316C46.7316 32.5333 47.5582 33.6 48.8116 34.4C50.0649 35.2267 51.5716 35.64 53.3316 35.64C55.3316 35.64 56.9582 35.0133 58.2116 33.76C59.4916 32.5067 60.1316 30.7467 60.1316 28.48V23.88C59.4116 25.16 58.3449 26.2267 56.9316 27.08C55.5182 27.9333 53.8649 28.36 51.9716 28.36C50.0249 28.36 48.2516 27.88 46.6516 26.92C45.0782 25.96 43.8382 24.6133 42.9316 22.88C42.0249 21.1467 41.5716 19.1733 41.5716 16.96C41.5716 14.72 42.0249 12.76 42.9316 11.08C43.8382 9.37333 45.0782 8.05333 46.6516 7.12C48.2516 6.18667 50.0249 5.72 51.9716 5.72ZM60.1316 17C60.1316 15.3467 59.7982 13.9067 59.1316 12.68C58.4649 11.4533 57.5582 10.52 56.4116 9.88C55.2916 9.21333 54.0516 8.88 52.6916 8.88C51.3316 8.88 50.0916 9.2 48.9716 9.84C47.8516 10.48 46.9582 11.4133 46.2916 12.64C45.6249 13.8667 45.2916 15.3067 45.2916 16.96C45.2916 18.64 45.6249 20.1067 46.2916 21.36C46.9582 22.5867 47.8516 23.5333 48.9716 24.2C50.0916 24.84 51.3316 25.16 52.6916 25.16C54.0516 25.16 55.2916 24.84 56.4116 24.2C57.5582 23.5333 58.4649 22.5867 59.1316 21.36C59.7982 20.1067 60.1316 18.6533 60.1316 17ZM79.5228 28.36C77.4695 28.36 75.6028 27.8933 73.9228 26.96C72.2695 26.0267 70.9628 24.7067 70.0028 23C69.0695 21.2667 68.6028 19.2667 68.6028 17C68.6028 14.76 69.0828 12.7867 70.0428 11.08C71.0295 9.34667 72.3628 8.02667 74.0428 7.12C75.7228 6.18667 77.6028 5.72 79.6828 5.72C81.7628 5.72 83.6428 6.18667 85.3228 7.12C87.0028 8.02667 88.3228 9.33333 89.2828 11.04C90.2695 12.7467 90.7628 14.7333 90.7628 17C90.7628 19.2667 90.2561 21.2667 89.2428 23C88.2561 24.7067 86.9095 26.0267 85.2028 26.96C83.4961 27.8933 81.6028 28.36 79.5228 28.36ZM79.5228 25.16C80.8295 25.16 82.0561 24.8533 83.2028 24.24C84.3495 23.6267 85.2695 22.7067 85.9628 21.48C86.6828 20.2533 87.0428 18.76 87.0428 17C87.0428 15.24 86.6961 13.7467 86.0028 12.52C85.3095 11.2933 84.4028 10.3867 83.2828 9.8C82.1628 9.18667 80.9495 8.88 79.6428 8.88C78.3095 8.88 77.0828 9.18667 75.9628 9.8C74.8695 10.3867 73.9895 11.2933 73.3228 12.52C72.6561 13.7467 72.3228 15.24 72.3228 17C72.3228 18.7867 72.6428 20.2933 73.2828 21.52C73.9495 22.7467 74.8295 23.6667 75.9228 24.28C77.0161 24.8667 78.2161 25.16 79.5228 25.16Z" fill="white"/>
</svg>
